<svg xmlns="http://www.w3.org/2000/svg" viewBox="0 0 211.01 267.75"><defs><style>.cls-1{fill:#3769f5;}.cls-2{fill:#fff;}</style></defs><title>Asset 3</title><g id="Layer_2" data-name="Layer 2"><g id="Layer_1-2" data-name="Layer 1"><path class="cls-1" d="M211,0V162.52c0,58.12-47.23,105.23-105.5,105.23S0,220.64,0,162.52V0Z"/><path class="cls-2" d="M157,160.79c0-2.54-1.33-4.36-2.41-6.16l-13.86-19.35c-5.66,5.18-14.45,4.92-14.45,4.92,6.33,7,20.12,16.34,20.12,16.34,1.41.9,1.89,2,1.9,4.06a118.45,118.45,0,0,1-10,47.64c-4.76,5.74-6.64,11.28-6.26,15.84H142c-.93-11.05,5.75-16.63,5.75-16.63-2.09-5.68,1.42-14.27,1.42-14.27C154.64,180.17,157,172.76,157,160.79Z"/><path class="cls-2" d="M179.07,152.89c0-3.78-1.5-4.84-3.17-7.18-3.19-4.43-4.26-6.92-4.29-14.82v-6.84c0-4.31,1.77-8.48,4.48-16,3.42-9.44.95-14.69-6.31-17.73,8.78-5.89,7-14.45,7-14.45L96.16,94.06a49.33,49.33,0,0,1-9,1.41c-3.77,0-4.38-1.86-4.38-4.23V51.75c0-3.43.38-6.67-4.52-10.27,11,0,16.34-8.45,16.31-19.62l-11,9.07V21.86L41.34,47.3A1.8,1.8,0,0,0,40.69,50l1.62,2.48A4.61,4.61,0,0,0,46,54H68.29L57.59,94.24s-4.23,14.23-4.23,25.5c0,7.44,2.75,20.26,13.13,20.26,7.6,0,12-5,15.9-11.1,0,0-1.88,34.25-25.4,79.36-5.24,5.74-6.87,11.27-6.87,15.82H60a21.71,21.71,0,0,1,7.15-16.61c-1.38-7.52,3-14.39,3-14.39,8-12.89,15.29-27.39,19.49-42.86,0,0,2.21-11.46,12.15-11.46,13.91,0,25.27,1.32,42.3-12.66,2.12,10.3,11.39,24.05,21.85,31.73a6.75,6.75,0,0,1,2.61,5.23c-.06,13.11.63,28.76-5.57,45.18-4.77,5.75-6.23,11.29-5.84,15.84h9.07c.1-11.36,5.75-16.62,5.75-16.62-1.64-6.52.58-14.41.58-14.41C175.23,182.07,179.07,172.31,179.07,152.89Z"/><path class="cls-2" d="M69.87,171.2v-9a11.48,11.48,0,0,1-11.24-8c-4.72-1.76-7.06-6.89-8.5-10.31-1.57-3.7-3.34-11.2-13.46-19.35l13.15-1.06s-1.17-7.48,1.62-11.92l-15.8,5c-3,1-5,1.78-6.67,3.91-1.92,2.66-1,5.66.75,7.58,22.92,25.21,25.33,33.3,25.33,33.3A16.47,16.47,0,0,0,69.87,171.2Z"/></g></g></svg>